# xmcd CD database file
#
# Track frame offsets:
#	300
#	28222
#	48280
#	64629
#	80915
#	103191
#	126548
#	150369
#	176702
#	197902
#
# Disc length: 3025 seconds
#
# Revision: 2
# Processed by: cddbd v1.5PL3 Copyright (c) Steve Scherf et al.
# Submitted via: CDex 1.51
#
DISCID=8f0bcd0a
DTITLE=?????? - ??????????? ?? Disc1
DYEAR=2003
DGENRE=New Age
TTITLE0=??
TTITLE1=??
TTITLE2=??
TTITLE3=????
TTITLE4=????
TTITLE5=??
TTITLE6=???
TTITLE7=??
TTITLE8=??
TTITLE9=???
EXTD=YEAR: 2003
EXTT0=
EXTT1=
EXTT2=
EXTT3=
EXTT4=
EXTT5=
EXTT6=
EXTT7=
EXTT8=
EXTT9=
PLAYORDER=
